
<svg xmlns="http://www.w3.org/2000/svg" xmlns:xlink="http://www.w3.org/1999/xlink" class="logo" viewBox="0 0 800 400" fill="none">
    <path fill="#796cfa"  transform="translate(169.951, 82.4758)" d="M-51.2981,-18.0194L131.1384,-15.5686C141.1759,-6.6749,122.7873,16.1385,106.948,18.6695C59.1947,12.6908,4.6655,16.3549,-53.9187,18.1709" />
    <path fill="#796cfa"  transform="translate(353.0279, 96.3663)" d="M-20.1557,-26.5473L-64.004,252.7567L-36.1638,255.0001L5.5964,-26.5473" />
    <path fill="#796cfa"  transform="translate(322.6093, 232.3454)" d="M0,0L79.243,-44.7012C85.8011,-41.0965,90.4922,-29.3839,79.8587,-13.7677C69.2251,1.8485,11.4319,18.9764,13.879,34.9828C16.3261,50.9891,45.1611,93.2502,61.3211,115.6502C61.3211,115.6502,35.0811,124.9835,28.5211,120.9302C21.9611,116.8768,-4.0637,57.9084,-4.0637,57.9084" />
    <path fill="#796cfa"  transform="translate(422.1071, 212.6394)" d="M0,0C26.3409,-26.1205,55.7359,-26.922,44.7012,-12.1912C33.6666,2.5395,25.8828,125.7779,20.3187,134.1036C14.7547,142.4293,-5.0797,126.9921,-5.0797,126.9921" />
    <path fill="#796cfa"  transform="translate(446.0978, 152.5823)" d="M0,-24.8904C12.6098,-24.9528,19.3707,-12.9995,20.8267,0C22.2827,12.9995,28.0396,23.6037,0,24.8904C-28.0396,26.1772,-21.9318,27.1246,-20.8267,0C-19.7216,-27.1246,-12.6098,-24.8281,0,-24.8904z" />
    <path fill="#796cfa"  transform="translate(204.6794, 43.645)scale(0.9, 0.9)" d="M574.8531,350.2891C590.581,351.8626,653.0745,362.7353,626.6658,324.8907C600.2572,287.0461,646.6222,202.3795,637.8411,193.8349C629.06,185.2903,576.0667,164.481,587.0443,186.7233C598.022,208.9656,559.1252,348.7156,574.8531,350.2891z" />
    <path fill="#796cfa"  transform="translate(511.3214, 206.0205)" d="M-27.4303,135.1196L19.3028,140.1992C19.3028,140.1992,22.3015,27.5885,39.5724,33.6841C56.8433,39.7797,52.8772,140.5254,52.8772,140.5254C52.8772,140.5254,87.7401,145.4725,94.8073,143.7508C101.8745,142.029,93.7185,26.4658,117.8486,30.4781C141.9788,34.4904,139.1565,147.3793,139.1565,147.3793C139.1565,147.3793,143.9946,173.9889,178.2645,149.7984C178.2645,149.7984,201.9985,5.5344,159.6652,-13.0117C135.1197,-25.0877,25.6126,-15.9744,1.6207,5.5344C-26.31,30.5742,-27.4303,135.1196,-27.4303,135.1196z" />
    <path fill="#796cfa"  transform="translate(760.9162, 164.642)" d="M0,-24.89C24.2102,-24.704,31.9222,-14.7166,20.826,0C9.7298,14.7166,11.5019,24.89,0,24.89C-11.5019,24.89,-20.826,13.7464,-20.826,0C-20.826,-13.7464,-24.2102,-25.076,0,-24.89z" />
    <path fill="#796cfa"  transform="translate(551.4238, 140.4958)" d="M-44.5766,-9.2474C-4.9525,30.4906,114.355,-7.5571,162.6744,1.651C162.6744,1.651,137.7057,46.2718,133.3906,37.208C129.0756,28.1442,-18.7261,42.6432,-46.142,37.402" />
    <path fill="#796cfa"  transform="translate(151.2533, 227.6551)" d="M0,0C5.3291,-14.3725,1.1625,-5.2669,11.6921,-31.0445C22.2216,-56.822,65.8661,-40.8832,84.6667,-34.2698C103.4673,-27.6565,110.0667,-19.7556,110.0667,-19.7556C117.0938,-8.1695,111.2524,20.2279,112.0826,32.254C112.9127,44.2801,106.706,112.7975,93.5365,124.1778C80.3671,135.5581,57.7973,130.7233,54.4286,131.8381C51.0598,132.9529,25.4,132.2413,25.4,132.2413C25.4,132.2413,6.6882,122.5713,0,116.9207C-6.6882,111.27,-14.9175,99.5841,-14.9175,99.5841L-21.7714,56.0413C-21.7714,56.0413,-1.5972,42.0204,-2.0159,55.6381C-2.4345,69.2558,13.2092,97.9452,22.981,108.454C32.7527,118.9628,66.9911,113.3385,76.2,112.8889C85.4089,112.4394,82.7377,101.8809,82.2476,82.6508C81.7576,63.4207,91.1749,50.8144,91.5207,41.9302C91.8664,33.0459,90.0595,24.2143,90.0595,24.2143L88.2953,2.8222C88.2953,2.8222,82.7806,-3.1466,70.1524,-12.4984C57.5242,-21.8503,18.3497,-9.7836,16.127,8.0635C13.9043,25.9106,0.4032,75.3937,-20.1587,55.2349" />
    <path fill="#796cfa"  transform="translate(-1.1106, 88.3843)" d="M9.542,-9.1422C3.0017,39.9929,5.5357,207.0168,23.232,251.4144C40.9282,295.8119,65.4301,281.9219,86.5177,266.6543C107.6053,251.3866,141.0789,15.9559,141.0789,15.9559C141.0789,15.9559,145.2415,-21.506,125.9443,-27.6552C106.6471,-33.8045,92.3563,161.6528,76.2051,211.068C60.0539,260.4833,46.1395,249.9986,44.3088,212.3207C42.4782,174.6428,37.2345,-14.8385,37.2345,-14.8385" />
</svg>